<svg viewBox="0 0 1024 1024" version="1.1" xmlns="http://www.w3.org/2000/svg" xmlns:xlink="http://www.w3.org/1999/xlink" width="1em" height="1em" fill="currentColor"><path d="M717.376 423.68h118.016c15.466667 0 27.989333 12.544 27.989333 28.010667 0 208.533333-169.408 377.578667-378.346666 377.578666C276.053333 829.269333 106.666667 660.224 106.666667 451.669333c0-172.949333 117.525333-322.517333 282.901333-365.44a27.989333 27.989333 0 1 1 14.08 54.208c-8.384 2.176-16.618667 4.693333-24.704 7.466667l147.84 275.776h129.706667L754.474667 194.133333a28.010667 28.010667 0 0 1 25.749333-17.024h101.12a28.010667 28.010667 0 0 1 0 56H798.72l-81.344 190.570667zM327.722667 170.88a321.898667 321.898667 0 0 0-163.84 252.8h299.349333L327.722667 170.88z m157.312 602.389333c168.576 0 306.922667-129.109333 321.152-293.589333H163.84c14.229333 164.48 152.576 293.589333 321.173333 293.589333zM266.88 959.68c-45.610667 0-82.432-37.397333-82.432-83.285333 0-45.909333 36.821333-83.285333 82.432-83.285334 45.653333 0 82.453333 37.376 82.453333 83.285334 0 45.888-36.821333 83.285333-82.453333 83.285333z m0-56c14.506667 0 26.453333-12.138667 26.453333-27.306667 0-15.146667-11.946667-27.264-26.453333-27.264-14.506667 0-26.453333 12.117333-26.453333 27.285334 0 15.146667 11.946667 27.285333 26.453333 27.285333z m435.562667 56c-45.632 0-82.432-37.397333-82.432-83.285333 0-45.909333 36.8-83.285333 82.432-83.285334s82.453333 37.376 82.453333 83.285334c0 45.888-36.821333 83.285333-82.453333 83.285333z m0-56c14.506667 0 26.453333-12.138667 26.453333-27.306667 0-15.146667-11.946667-27.264-26.453333-27.264-14.506667 0-26.453333 12.117333-26.453334 27.285334 0 15.146667 11.946667 27.285333 26.453334 27.285333z" fill="currentColor"></path></svg>