<svg viewBox="0 0 1024 1024" version="1.1" xmlns="http://www.w3.org/2000/svg" xmlns:xlink="http://www.w3.org/1999/xlink" width="1em" height="1em" fill="currentColor"><path d="M309.333333 330.666667a202.666667 202.666667 0 1 1 405.333334 0 202.666667 202.666667 0 0 1-405.333334 0zM512 192a138.666667 138.666667 0 1 0 0 277.333333 138.666667 138.666667 0 0 0 0-277.333333z" p-id="5212"></path><path d="M512 618.666667a309.461333 309.461333 0 0 0-303.872 251.306666 32 32 0 0 1-62.890667-11.946666A373.461333 373.461333 0 0 1 512 554.666667a32 32 0 0 1 0 64zM740.096 634.368a92.458667 92.458667 0 1 1 129.578667 131.84l-129.578667 129.621333-130.730667-130.730666a92.458667 92.458667 0 0 1 130.730667-130.730667z"></path></svg>