<svg viewBox="80 80 864 864" version="1.1" xmlns="http://www.w3.org/2000/svg" xmlns:xlink="http://www.w3.org/1999/xlink" width="1em" height="1em" fill="currentColor"><path d="M512 96a416 416 0 1 0 416 416A416.48 416.48 0 0 0 512 96z m352 416c0 32.48-4.48 64.768-13.312 96H696.64a629.696 629.696 0 0 0 0-192h154.048c8.864 31.232 13.344 63.552 13.312 96z m-456 160h208A460.448 460.448 0 0 1 512 852 461.088 461.088 0 0 1 408 672z m-15.616-64a563.392 563.392 0 0 1 0-192h239.52a563.392 563.392 0 0 1 0 192h-239.52zM160 512c0-32.448 4.48-64.768 13.312-96h154.048a629.76 629.76 0 0 0 0 192H173.312A350.432 350.432 0 0 1 160 512z m456-160h-208A460.448 460.448 0 0 1 512 172 461.088 461.088 0 0 1 616 352z m209.312 0H682.88a541.024 541.024 0 0 0-89.216-182.4 353.152 353.152 0 0 1 231.84 182.4h-0.16zM430.4 169.6A541.12 541.12 0 0 0 341.12 352H198.528a353.152 353.152 0 0 1 231.84-182.4zM198.528 672h142.624a541.12 541.12 0 0 0 89.216 182.4A353.184 353.184 0 0 1 198.528 672z m395.104 182.4A540.992 540.992 0 0 0 682.88 672h142.624a353.184 353.184 0 0 1-231.84 182.4z"></path></svg>