<svg t="1765093915113" class="icon" viewBox="0 0 1024 1024" version="1.1" xmlns="http://www.w3.org/2000/svg" xmlns:xlink="http://www.w3.org/1999/xlink" width="1em" height="1em" fill="currentColor"><path d="M994 482h-40.356C972.19 445.138 982 404.182 982 361.716c0-71.592-27.88-138.9-78.502-189.524-50.624-50.624-117.932-78.504-189.524-78.504s-138.9 27.88-189.524 78.504L512 184.642l-12.45-12.448c-50.624-50.624-117.93-78.504-189.524-78.504s-138.9 27.88-189.524 78.502C69.88 222.816 42 290.124 42 361.716c0 42.464 9.81 83.422 28.356 120.284H30c-16.568 0-30 13.432-30 30s13.432 30 30 30h81.692a275.48 275.48 0 0 0 8.812 9.24l370.284 370.284c5.858 5.858 13.536 8.788 21.212 8.788s15.356-2.928 21.212-8.788L903.496 551.24a275.48 275.48 0 0 0 8.812-9.24H994c16.568 0 30-13.432 30-30s-13.432-30-30-30zM102 361.716c0-55.566 21.638-107.806 60.93-147.098 39.29-39.292 91.53-60.93 147.096-60.93s107.806 21.638 147.098 60.93l33.662 33.662c11.714 11.716 30.71 11.716 42.426 0l33.662-33.662c39.292-39.292 91.532-60.93 147.098-60.93s107.806 21.638 147.098 60.93S922 306.15 922 361.716c0 43.716-13.402 85.37-38.248 120.284h-157.242l-67.166-106.052a30 30 0 0 0-51.378 1.144l-98.35 171.722-126.856-250.372a30 30 0 0 0-54.42 1.942L252.062 482H140.248C115.402 447.086 102 405.434 102 361.716z m410 496.168L196.116 542H272c12.08 0 22.982-7.246 27.66-18.382l58.888-140.21L481.24 625.56a29.996 29.996 0 0 0 52.794 1.352l101.258-176.8 49.364 77.944A30.006 30.006 0 0 0 710 542h117.884z"></path></svg>