<svg t="1765094131262" class="icon" viewBox="0 0 1024 1024" version="1.1" xmlns="http://www.w3.org/2000/svg" xmlns:xlink="http://www.w3.org/1999/xlink" width="1em" height="1em" fill="currentColor"><path d="M672.4608 325.9904H351.6416a122.368 122.368 0 0 0-122.88 122.88v179.2a122.368 122.368 0 0 0 122.88 122.88h133.12c3.3792 37.5296 5.12 107.52-34.1504 139.9296-29.0304 23.9104-80.2304 23.9104-150.1696 1.6896 5.12-13.6192 8.4992-28.9792 8.4992-44.3392 0-69.9904-56.32-126.3104-126.2592-126.3104A126.0032 126.0032 0 0 0 56.32 848.2304c0 69.9392 56.32 126.2592 126.3104 126.2592 30.72 0 59.6992-11.9296 81.92-30.72 46.08 17.1008 88.7296 25.6 124.5696 25.6 40.96 0 75.1104-10.24 100.7104-32.4096 59.6992-49.5104 61.44-136.5504 56.32-187.7504H670.72a122.368 122.368 0 0 0 122.88-122.88V448.8704c1.6896-68.3008-52.8896-122.88-121.1904-122.88z m-559.7696 522.24c0-39.2704 32.4096-69.9904 69.9904-69.9904 37.5296 0 69.9392 32.4096 69.9392 69.9904 0 39.2192-32.4096 69.9392-69.9392 69.9392-37.5808 0-69.9904-30.72-69.9904-69.9392z m621.2096-221.9008c0 34.1504-27.2896 61.44-61.44 61.44H351.6416c-34.1504 0-61.44-27.2896-61.44-61.44V448.8704c0-34.1504 27.2896-61.44 61.44-61.44h320.8192c34.1504 0 61.44 27.2896 61.44 61.44v177.4592z m281.6-107.52c-11.9296 11.9808-30.72 13.6704-42.6496 1.7408l-440.32-406.2208c-5.12-5.12-15.36-5.12-20.48 0l-460.8 406.2208c-6.8096 5.12-13.6704 8.4992-20.48 8.4992a27.4944 27.4944 0 0 1-22.1696-10.24 28.6208 28.6208 0 0 1 3.3792-42.6496l460.8-407.9104c29.0304-25.6 73.4208-25.6 102.4 1.7408l440.32 406.1696c11.9808 10.24 11.9808 30.72 0 42.6496z m-409.6 18.7904c0 15.36-11.9296 29.0304-28.9792 29.0304h-37.5808v37.5296c0 15.36-11.9296 29.0304-28.9792 29.0304A28.7744 28.7744 0 0 1 481.28 604.16v-37.5296h-37.5296A28.7744 28.7744 0 0 1 414.72 537.6c0-15.36 11.9296-29.0304 29.0304-29.0304H481.28V471.04c0-15.36 11.9296-29.0304 29.0304-29.0304 15.36 0 28.9792 11.9808 28.9792 29.0304v37.5296h37.5808c17.0496 0 28.9792 13.6704 28.9792 29.0304z"></path></svg>