<svg t="1765094098893" class="icon" viewBox="0 0 1024 1024" version="1.1" xmlns="http://www.w3.org/2000/svg" xmlns:xlink="http://www.w3.org/1999/xlink" width="1em" height="1em" fill="currentColor"><path d="M930.144 421.632a32 32 0 0 1 8.224 44.48l-352 512a32 32 0 1 1-52.736-36.256l352-512a32 32 0 0 1 44.48-8.224zM864 64a32 32 0 0 1 32 32v205.792l-64 93.088V128H192v768h295.456l-44 64H160a32 32 0 0 1-32-32V96a32 32 0 0 1 32-32h704z m32 576.704V928a32 32 0 0 1-32 32h-187.52l44-64H832v-162.176l64-93.12zM480 448a32 32 0 0 1 0 64h-128a32 32 0 0 1 0-64h128z m192-192a32 32 0 0 1 0 64H352a32 32 0 0 1 0-64h320z"></path></svg>