<svg viewBox="0 0 1024 1024" version="1.1" xmlns="http://www.w3.org/2000/svg" xmlns:xlink="http://www.w3.org/1999/xlink" width="1em" height="1em" fill="currentColor"><path d="M503.232 54.592a32 32 0 0 1 17.92 0l383.808 112.128a32 32 0 0 1 23.04 30.72v229.952a593.408 593.408 0 0 1-405.824 562.944 32 32 0 0 1-20.224 0A593.536 593.536 0 0 1 96 427.328v-229.76a32 32 0 0 1 23.04-30.72L503.232 54.528zM160 221.44v205.824A529.536 529.536 0 0 0 512 926.144a529.408 529.408 0 0 0 352-498.752V221.44L512.192 118.656 160 221.44z"></path><path d="M747.968 361.344a32 32 0 0 1 0 45.312l-256 256a32 32 0 0 1-45.248 0L297.344 513.28a32 32 0 1 1 45.312-45.248l126.72 126.72 233.344-233.408a32 32 0 0 1 45.248 0z"></path></svg>